<?xml version="1.0" encoding="UTF-8" standalone="no" ?>
<!DOCTYPE svg PUBLIC "-//W3C//DTD SVG 1.1//EN" "http://www.w3.org/Graphics/SVG/1.1/DTD/svg11.dtd">
<svg xmlns="http://www.w3.org/2000/svg" xmlns:xlink="http://www.w3.org/1999/xlink" version="1.1" width="512" height="512" viewBox="0 0 512 512" xml:space="preserve">
<desc>Created with Fabric.js 3.6.6</desc>
<defs>
</defs>
<g transform="matrix(9.9 0 0 9.9 256.35 256.25)"  >
<g style=""   >
		<g transform="matrix(1 0 0 1 0 0)"  >
<radialGradient id="SVGID_13" gradientUnits="userSpaceOnUse" gradientTransform="matrix(1 0 0 1 0 0)"  cx="26.4871" cy="25.3962" r="25.2868" fx="26.4871" fy="25.3962">
<stop offset="0%" style="stop-color:rgb(255,255,255);stop-opacity: 1"/>
<stop offset="51.49%" style="stop-color:rgb(253,253,253);stop-opacity: 1"/>
<stop offset="70.03%" style="stop-color:rgb(246,246,246);stop-opacity: 1"/>
<stop offset="83.25%" style="stop-color:rgb(235,235,235);stop-opacity: 1"/>
<stop offset="93.87%" style="stop-color:rgb(218,218,218);stop-opacity: 1"/>
<stop offset="100%" style="stop-color:rgb(204,204,204);stop-opacity: 1"/>
</radialGradient>
<path style="stroke: none; stroke-width: 1; stroke-dasharray: none; stroke-linecap: butt; stroke-dashoffset: 0; stroke-linejoin: miter; stroke-miterlimit: 4; fill: url(#SVGID_13); fill-rule: nonzero; opacity: 1;"  transform=" translate(-26.5, -25.4)" d="M 26.5 50.7 c -13.9 0 -25.3 -11.3 -25.3 -25.3 c 0 -13.9 11.3 -25.3 25.3 -25.3 c 13.9 0 25.3 11.3 25.3 25.3 C 51.8 39.3 40.4 50.7 26.5 50.7 z" stroke-linecap="round" />
</g>
		<g transform="matrix(1 0 0 1 0 0)"  >
<path style="stroke: none; stroke-width: 1; stroke-dasharray: none; stroke-linecap: butt; stroke-dashoffset: 0; stroke-linejoin: miter; stroke-miterlimit: 4; fill: rgb(204,204,204); fill-rule: nonzero; opacity: 1;"  transform=" translate(-26.5, -25.4)" d="M 26.5 50.7 c -13.9 0 -25.3 -11.3 -25.3 -25.3 c 0 -13.9 11.3 -25.3 25.3 -25.3 c 13.9 0 25.3 11.3 25.3 25.3 C 51.8 39.3 40.4 50.7 26.5 50.7 z M 26.5 0.4 c -13.8 0 -25 11.2 -25 25 s 11.2 25 25 25 c 13.8 0 25 -11.2 25 -25 S 40.2 0.4 26.5 0.4 z" stroke-linecap="round" />
</g>
		<g transform="matrix(1 0 0 1 12.45 12.2)"  >
<path style="stroke: none; stroke-width: 1; stroke-dasharray: none; stroke-linecap: butt; stroke-dashoffset: 0; stroke-linejoin: miter; stroke-miterlimit: 4; fill: rgb(255,213,32); fill-rule: nonzero; opacity: 1;"  transform=" translate(-38.95, -37.6)" d="M 51.6 24.8 c 0 0.1 -0.4 0.5 -0.9 0.8 c 0 0 0 0 0 0 c -0.6 0.4 -1.6 0.7 -2.7 1 c -1.2 0.3 -2.6 0.6 -4.2 0.8 c -1.6 0.2 -3.4 0.4 -5.3 0.6 c 0 0 0 0 0 0 c -2.4 0.2 -4 0.3 -5.9 0.4 c -2.1 0.1 -4.2 0.1 -6.4 0.1 c 0 0.3 0 0.6 0 0.8 c 0 2 0 3.8 0 5.6 c 0.1 9.6 0.1 9.6 0.4 15.5 c 13.9 0 25.1 -11.2 25.1 -25.1 C 51.6 25.4 51.6 25 51.6 24.8 z" stroke-linecap="round" />
</g>
		<g transform="matrix(1 0 0 1 2.8 9.1)"  >
<path style="stroke: none; stroke-width: 1; stroke-dasharray: none; stroke-linecap: butt; stroke-dashoffset: 0; stroke-linejoin: miter; stroke-miterlimit: 4; fill: rgb(0,0,0); fill-rule: nonzero; opacity: 1;"  transform=" translate(-29.3, -34.5)" d="M 26.1 29.4 c 0 2 0 3.8 0 5.6 c 4 3.8 4 3.8 5.7 5.5 c 0.4 -3.2 0.7 -7 0.7 -11.2 c 0 -0.3 0 -0.6 0 -0.8 c -2.5 0.1 -4.2 0.1 -6.4 0.1 C 26.1 28.9 26.1 29.1 26.1 29.4 z" stroke-linecap="round" />
</g>
		<g transform="matrix(1 0 0 1 4.9 20.1)"  >
<path style="stroke: none; stroke-width: 1; stroke-dasharray: none; stroke-linecap: butt; stroke-dashoffset: 0; stroke-linejoin: miter; stroke-miterlimit: 4; fill: rgb(0,0,0); fill-rule: nonzero; opacity: 1;"  transform=" translate(-31.4, -45.5)" d="M 35.3 44.8 c -0.9 -1.4 -1.7 -2.4 -3.5 -4.3 c -0.9 6.1 -2.4 9.9 -4.3 10 c 0.2 0 0.4 0 0.6 0 c 0.2 0 0.4 0 0.6 -0.1 C 31.4 50.2 33.6 48.2 35.3 44.8 z" stroke-linecap="round" />
</g>
		<g transform="matrix(1 0 0 1 11.95 15.8)"  >
<path style="stroke: none; stroke-width: 1; stroke-dasharray: none; stroke-linecap: butt; stroke-dashoffset: 0; stroke-linejoin: miter; stroke-miterlimit: 4; fill: rgb(0,0,0); fill-rule: nonzero; opacity: 1;"  transform=" translate(-38.45, -41.2)" d="M 38.1 34.5 c 0 0 -1.4 7.5 -2.8 10.3 c 0.8 1.5 0.8 2.1 0.5 3.1 c 2.4 -1.9 4.4 -4.6 5.8 -8.1 C 40.8 38 40.2 37 38.1 34.5 z" stroke-linecap="round" />
</g>
		<g transform="matrix(1 0 0 1 6.7 23.65)"  >
<path style="stroke: none; stroke-width: 1; stroke-dasharray: none; stroke-linecap: butt; stroke-dashoffset: 0; stroke-linejoin: miter; stroke-miterlimit: 4; fill: rgb(0,0,0); fill-rule: nonzero; opacity: 1;"  transform=" translate(-33.2, -49.05)" d="M 31 50.1 c 0.5 -0.1 0.5 -0.1 1.5 -0.3 l 0.6 -0.2 c 1.9 -0.6 2.2 -0.9 2.8 -1.7 c -1.7 1.2 -3.4 2 -5.4 2.3 L 31 50.1 z" stroke-linecap="round" />
</g>
		<g transform="matrix(1 0 0 1 18.25 9.95)"  >
<path style="stroke: none; stroke-width: 1; stroke-dasharray: none; stroke-linecap: butt; stroke-dashoffset: 0; stroke-linejoin: miter; stroke-miterlimit: 4; fill: rgb(0,0,0); fill-rule: nonzero; opacity: 1;"  transform=" translate(-44.75, -35.35)" d="M 42.1 44 c 3.6 -4.1 5.8 -9.9 5.8 -16.5 c 0 -0.3 0 -0.6 0 -0.8 c -1.2 0.3 -2.6 0.6 -4.2 0.8 c 0 0.3 0 0.6 0 0.8 c 0 4.3 -0.7 8.2 -2.1 11.5 C 42.5 41.7 42.5 42.5 42.1 44 z" stroke-linecap="round" />
</g>
		<g transform="matrix(1 0 0 1 9.05 5.85)"  >
<path style="stroke: none; stroke-width: 1; stroke-dasharray: none; stroke-linecap: butt; stroke-dashoffset: 0; stroke-linejoin: miter; stroke-miterlimit: 4; fill: rgb(0,0,0); fill-rule: nonzero; opacity: 1;"  transform=" translate(-35.55, -31.25)" d="M 38.5 28 c -2.4 0.2 -4 0.3 -5.9 0.4 c 3.4 3.6 4.2 4.4 5.6 6.1 c 0.2 -1.8 0.3 -3.7 0.3 -5.6 C 38.5 28.6 38.5 28.3 38.5 28 z" stroke-linecap="round" />
</g>
		<g transform="matrix(1 0 0 1 -2.75 -24.45)"  >
<path style="stroke: none; stroke-width: 1; stroke-dasharray: none; stroke-linecap: butt; stroke-dashoffset: 0; stroke-linejoin: miter; stroke-miterlimit: 4; fill: rgb(0,0,0); fill-rule: nonzero; opacity: 1;"  transform=" translate(-23.75, -0.95)" d="M 21 1.6 c 1.4 -0.6 2.7 -1.2 5.5 -1.3 l 0 0 C 24.6 0.4 22.7 0.9 21 1.6" stroke-linecap="round" />
</g>
		<g transform="matrix(1 0 0 1 8.5 -6.1)"  >
<path style="stroke: none; stroke-width: 1; stroke-dasharray: none; stroke-linecap: butt; stroke-dashoffset: 0; stroke-linejoin: miter; stroke-miterlimit: 4; fill: rgb(224,58,62); fill-rule: nonzero; opacity: 1;"  transform=" translate(-35, -19.3)" d="M 43.3 27.4 c -1.3 -0.2 -2.4 -2.4 -1.8 -4.6 c -1.8 1.3 -3.9 -1.3 -3.6 -3.8 c 0.2 -1.3 1 -2.4 2.5 -1.9 c -0.6 -2 -1.3 -4 -2.2 -5.8 c -1.3 0.2 -2.7 0.3 -4.2 0.4 c 1.3 2 0 3.9 -1.8 3.6 c -1.4 -0.2 -2.6 -1.6 -2.3 -3.3 c -1.1 0.8 -3.4 0.5 -3.6 -1.9 c -0.1 5.1 -0.1 11.6 -0.1 18.4 c 6.7 0.1 14.5 -0.6 17.6 -1.1 c 0 0 0 0 0 0 C 43.6 27.5 43.4 27.5 43.3 27.4 z" stroke-linecap="round" />
</g>
		<g transform="matrix(1 0 0 1 -9.25 10.95)"  >
<path style="stroke: none; stroke-width: 1; stroke-dasharray: none; stroke-linecap: butt; stroke-dashoffset: 0; stroke-linejoin: miter; stroke-miterlimit: 4; fill: rgb(224,58,62); fill-rule: nonzero; opacity: 1;"  transform=" translate(-17.25, -36.35)" d="M 10.3 32.5 c 1.9 -0.7 4.2 2.5 3.4 4.7 c -0.4 1 -1.4 1.3 -2.4 0.7 c 0.6 1.9 1.3 3.6 2.1 5.1 c 1.3 0.2 2.8 0.3 4.4 0.5 c -1.3 -1.6 -0.3 -2.9 1.5 -2.8 c 1.5 0.1 3.5 1.3 3 3 c 1.3 -0.6 3.6 -0.1 3.9 1.6 c -0.1 -3.8 -0.1 -9.3 -0.1 -15.8 c 0 -0.3 0 -0.5 0 -0.8 c -2.1 0 -4.3 -0.1 -6.4 -0.2 c -4.5 -0.2 -7.6 -0.4 -11.4 -1.1 c 0 0 0 0 0 0 C 10.2 28 10.8 30.9 10.3 32.5 z" stroke-linecap="round" />
</g>
		<g transform="matrix(1 0 0 1 16.1 -8)"  >
<path style="stroke: none; stroke-width: 1; stroke-dasharray: none; stroke-linecap: butt; stroke-dashoffset: 0; stroke-linejoin: miter; stroke-miterlimit: 4; fill: rgb(224,58,62); fill-rule: nonzero; opacity: 1;"  transform=" translate(-42.6, -17.4)" d="M 38.4 9.3 L 38.4 9.3 L 38.4 9.3 C 38.4 9.3 38.4 9.3 38.4 9.3 L 38.4 9.3 C 38.4 9.3 38.4 9.3 38.4 9.3 c 0.3 0 0.5 -0.1 0.7 -0.1 c 1.4 -0.3 4.7 -1 4.7 -2 c 0 0 1.3 1.3 2.2 3.1 c 0.1 0.2 0.2 0.4 0.3 0.7 c 0.1 0.3 0.2 0.7 0.2 0.9 c 0 0.5 -0.4 0.6 -0.7 0.4 c 0 0 -0.1 0 -0.1 0 c -1.3 -0.6 -1.7 -1.8 -2 -2.3 c -0.7 0.2 -1.7 0.7 -2.6 0.9 c -0.1 0 -0.3 0.1 -0.4 0.1 c 1.1 1.8 2.1 3.8 2.8 5.9 c 1.3 -1.3 3.2 1.1 3.3 3.4 c 0.1 1.4 -0.6 2.6 -1.8 2.1 c 1 1.9 0.7 4.6 -1.2 5.2 C 43.4 21.4 42.4 15.9 38.4 9.3 L 38.4 9.3 L 38.4 9.3" stroke-linecap="round" />
</g>
		<g transform="matrix(1 0 0 1 5.8 -20.15)"  >
<path style="stroke: none; stroke-width: 1; stroke-dasharray: none; stroke-linecap: butt; stroke-dashoffset: 0; stroke-linejoin: miter; stroke-miterlimit: 4; fill: rgb(224,58,62); fill-rule: nonzero; opacity: 1;"  transform=" translate(-32.3, -5.25)" d="M 38.4 9.4 L 38.4 9.4 L 38.4 9.4 L 38.4 9.4 L 38.4 9.4 c -3.2 -4.9 -5.7 -6.7 -9 -7.9 c -0.6 -0.3 -2.8 -1.1 -3 -1.1 l 0 0 l 0 0 c 0.6 0.8 1.7 1.3 2 1.4 c -0.1 0.3 0 0.9 1 1.7 c 0.2 0.1 0.3 0.2 0.5 0.3 c 1.6 0.9 2 0.2 2.1 -0.1 c 0 0 0 0 0 0 c 0.5 0.4 1.5 1.1 2.5 2.4 c 0.6 0.7 1.2 1.4 1.6 2 c -1 0.1 -2.3 0.2 -3.7 0.3 c -0.1 -1.6 -1.2 -2.4 -2 -2.7 C 29 5 28.5 6.9 29.2 8.2 c -1.3 -0.7 -2.7 -0.1 -3 1.9 C 31.2 10.1 34.6 9.9 38.4 9.4 L 38.4 9.4 L 38.4 9.4" stroke-linecap="round" />
</g>
		<g transform="matrix(1 0 0 1 8.2 -21.5)"  >
<path style="stroke: none; stroke-width: 1; stroke-dasharray: none; stroke-linecap: butt; stroke-dashoffset: 0; stroke-linejoin: miter; stroke-miterlimit: 4; fill: rgb(224,58,62); fill-rule: nonzero; opacity: 1;"  transform=" translate(-34.7, -3.9)" d="M 38.7 4.8 c 0 0 0 -0.1 0 -0.2 c 0 -0.1 0.1 -0.1 0.1 -0.1 s 0 -0.1 0.1 -0.1 c 0.3 -0.1 1 -0.2 3.1 1.2 c -4.4 -3.4 -9 -4.8 -13 -5.2 c -0.6 -0.1 -1.6 -0.1 -1.6 -0.1 c 1.3 0.1 2.1 0.4 2.3 0.5 C 29.8 0.9 30 1 30 1 c 0 0 0 0 0 0 c 0.3 0 0.5 0.1 0.9 0.2 c 0.4 0.1 1 0.4 1.6 0.6 C 33.1 2.1 34 2.7 34 3 c -0.1 0.1 -0.2 0.1 -0.6 0 c 1.5 1.1 3.6 3.1 4.9 4.5 c 0.9 -0.2 2.2 -0.3 2.8 -0.5 C 41 7.1 39.1 5.6 38.7 4.8 z" stroke-linecap="round" />
</g>
		<g transform="matrix(1 0 0 1 -17.5 10.4)"  >
<path style="stroke: none; stroke-width: 1; stroke-dasharray: none; stroke-linecap: butt; stroke-dashoffset: 0; stroke-linejoin: miter; stroke-miterlimit: 4; fill: rgb(224,58,62); fill-rule: nonzero; opacity: 1;"  transform=" translate(-9, -35.8)" d="M 13.1 44.3 C 11 44 9.7 43.6 8.9 43.2 c -0.1 -0.1 -0.2 -0.1 -0.2 -0.1 c 0 0 -1.2 -1.2 -2.3 -2.6 c -0.8 -1 -1.4 -2.1 -1.5 -2.2 c 0 0 0.2 0 0.3 0 c 1.1 0.4 2.9 3.5 2.9 3.5 c 0.7 0.3 1.6 0.5 2.7 0.7 c -1 -1.6 -1.9 -3.3 -2.6 -5.2 c -1.6 0.8 -3.6 -3.3 -2.9 -5.1 c 0.1 -0.4 0.5 -1.1 1.6 -0.3 c -0.8 -1.8 -0.6 -4.6 1.3 -4.6 C 8.3 33.4 9.2 38.7 13.1 44.3" stroke-linecap="round" />
</g>
		<g transform="matrix(1 0 0 1 -6.85 21.85)"  >
<path style="stroke: none; stroke-width: 1; stroke-dasharray: none; stroke-linecap: butt; stroke-dashoffset: 0; stroke-linejoin: miter; stroke-miterlimit: 4; fill: rgb(224,58,62); fill-rule: nonzero; opacity: 1;"  transform=" translate(-19.65, -47.25)" d="M 26.2 45.6 c -0.2 0.9 -1.4 1.7 -3.2 1 c 0.8 1.1 0.1 2 -1.3 1.7 c -1.1 -0.2 -2.4 -1.1 -2.5 -2 c -1.4 -0.1 -2.6 -0.2 -3.7 -0.4 c 1.1 1.2 2.2 2.2 3.5 3 c 0.2 -0.1 0.4 0 1.1 0.2 c 1 0.3 1.9 0.8 2.8 1.1 c 0 0 -0.2 0 -0.2 0 c -0.7 -0.1 -0.9 -0.2 -1.3 -0.2 c -1.9 -0.4 -5.1 -1.4 -8.3 -5.7 h 0 h 0 l 0 0 c 3.9 0.6 7.7 0.9 13.1 0.9 C 26.2 45.4 26.2 45.5 26.2 45.6" stroke-linecap="round" />
</g>
		<g transform="matrix(1 0 0 1 -12.6 -10.95)"  >
<path style="stroke: none; stroke-width: 1; stroke-dasharray: none; stroke-linecap: butt; stroke-dashoffset: 0; stroke-linejoin: miter; stroke-miterlimit: 4; fill: rgb(255,213,32); fill-rule: nonzero; opacity: 1;"  transform=" translate(-13.9, -14.45)" d="M 26.4 0.3 C 13 0.3 1.6 11.3 1.4 24.9 l 0 0 c 0 0 0.1 0.3 0.7 0.6 v 0 v 0 c 0.5 0.3 1.3 0.7 2.3 1 c 1.3 0.3 2.6 0.6 3.9 0.8 l 0 0 c 3.8 0.6 6.9 0.9 11.4 1.1 c 2.1 0.1 4.3 0.2 6.4 0.2 c 0 -1.3 0 -8.6 0 -15.6 c 0 -0.9 0 -1.9 0 -2.8 C 26.3 5.6 26.3 0.9 26.4 0.3 L 26.4 0.3 z" stroke-linecap="round" />
</g>
		<g transform="matrix(1 0 0 1 11.2 21.4)"  >
<path style="stroke: none; stroke-width: 1; stroke-dasharray: none; stroke-linecap: butt; stroke-dashoffset: 0; stroke-linejoin: miter; stroke-miterlimit: 4; fill: rgb(0,0,0); fill-rule: nonzero; opacity: 1;"  transform=" translate(-37.7, -46.8)" d="M 38.5 47.5 c -1.4 0.8 -1.7 0.8 -3.6 1.6 c -0.5 0.2 -1 0.3 -1.6 0.5 c 3.4 -0.9 8 -4.7 8.8 -5.6 c -0.4 0.9 -0.7 1.5 -1.7 2.3 C 40.1 46.5 38.9 47.2 38.5 47.5 z" stroke-linecap="round" />
</g>
		<g transform="matrix(1 0 0 1 -18.1 -10.15)"  >
<path style="stroke: none; stroke-width: 1; stroke-dasharray: none; stroke-linecap: butt; stroke-dashoffset: 0; stroke-linejoin: miter; stroke-miterlimit: 4; fill: rgb(0,0,0); fill-rule: nonzero; opacity: 1;"  transform=" translate(-8.4, -15.25)" d="M 4.4 26.5 c -1 -0.3 -1.8 -0.6 -2.3 -1 C 2.3 16.5 7.4 8.4 14.7 4 c -1.7 1.5 -2.5 2.5 -3.4 4.6 C 7.2 13.3 4.6 19.7 4.4 26.5" stroke-linecap="round" />
</g>
		<g transform="matrix(1 0 0 1 -5.85 -23.25)"  >
<path style="stroke: none; stroke-width: 1; stroke-dasharray: none; stroke-linecap: butt; stroke-dashoffset: 0; stroke-linejoin: miter; stroke-miterlimit: 4; fill: rgb(0,0,0); fill-rule: nonzero; opacity: 1;"  transform=" translate(-20.65, -2.15)" d="M 14.8 4 c 1.8 -1.3 2.9 -2.3 5.8 -3 c 2 -0.5 3.8 -0.7 5.9 -0.7 l 0 0 C 22.2 0.4 18.2 1.9 14.8 4" stroke-linecap="round" />
</g>
		<g transform="matrix(1 0 0 1 -15.35 -4.15)"  >
<path style="stroke: none; stroke-width: 1; stroke-dasharray: none; stroke-linecap: butt; stroke-dashoffset: 0; stroke-linejoin: miter; stroke-miterlimit: 4; fill: rgb(0,0,0); fill-rule: nonzero; opacity: 1;"  transform=" translate(-11.15, -21.25)" d="M 13.4 28 c -1.8 -0.2 -3.6 -0.4 -5.1 -0.7 c 0.1 -4.6 1.1 -8.9 2.7 -12.8 c 0.6 2.5 1.2 3.9 3 6.9 C 13.6 23.6 13.4 25.8 13.4 28" stroke-linecap="round" />
</g>
		<g transform="matrix(1 0 0 1 -3.05 -14.25)"  >
<path style="stroke: none; stroke-width: 1; stroke-dasharray: none; stroke-linecap: butt; stroke-dashoffset: 0; stroke-linejoin: miter; stroke-miterlimit: 4; fill: rgb(0,0,0); fill-rule: nonzero; opacity: 1;"  transform=" translate(-23.45, -11.15)" d="M 26.2 10.1 c 0 2.8 0 5.6 -0.1 7.8 c 0 2.2 0 3.8 0 4.1 c -2.5 -2.6 -3.8 -4 -5.6 -6.3 c 1.2 -7.8 3.4 -14 5.9 -15.4 l 0 0 l 0 0 C 26.3 1 26.3 5.4 26.2 10.1 z" stroke-linecap="round" />
</g>
		<g transform="matrix(1 0 0 1 -9.25 -6.3)"  >
<path style="stroke: none; stroke-width: 1; stroke-dasharray: none; stroke-linecap: butt; stroke-dashoffset: 0; stroke-linejoin: miter; stroke-miterlimit: 4; fill: rgb(0,0,0); fill-rule: nonzero; opacity: 1;"  transform=" translate(-17.25, -19.1)" d="M 17.4 9.8 c -1.6 3.3 -2.8 7.3 -3.4 11.6 c 1.5 2.3 2.5 3.6 5.5 7 c 0 -4.5 0.4 -8.8 1 -12.8 C 18.7 13.1 18.1 11.9 17.4 9.8 z" stroke-linecap="round" />
</g>
		<g transform="matrix(1 0 0 1 19 10.55)"  >
<path style="stroke: rgb(0,0,0); stroke-width: 0; stroke-dasharray: none; stroke-linecap: round; stroke-dashoffset: 0; stroke-linejoin: round; stroke-miterlimit: 4; fill: rgb(0,0,0); fill-rule: nonzero; opacity: 1;"  transform=" translate(-45.5, -35.95)" d="M 50.6 25.6 c 0 0.3 0 0.6 0 0.8 c 0 8.9 -4.3 16.3 -11.1 20.4 L 39.4 47 c 3.2 -2 7.2 -5.3 9.8 -10.7 c 2.7 -5.4 2.4 -11.4 2.4 -11.4 C 51.5 25.1 51.1 25.4 50.6 25.6 z" stroke-linecap="round" />
</g>
		<g transform="matrix(1 0 0 1 -10.59 -17.3)"  >
<path style="stroke: none; stroke-width: 1; stroke-dasharray: none; stroke-linecap: butt; stroke-dashoffset: 0; stroke-linejoin: miter; stroke-miterlimit: 4; fill: rgb(0,0,0); fill-rule: nonzero; opacity: 1;"  transform=" translate(-15.9, -8.1)" d="M 21 1.6 c -3.7 1.4 -7 3.9 -9.6 7 c -0.7 2.3 -0.7 3.6 -0.4 6 c 1.6 -3.8 3.9 -7.1 6.6 -9.6 C 18.4 3.5 18.9 2.7 21 1.6 z" stroke-linecap="round" />
</g>
		<g transform="matrix(1 0 0 1 -4.72 -20.3)"  >
<path style="stroke: none; stroke-width: 1; stroke-dasharray: none; stroke-linecap: butt; stroke-dashoffset: 0; stroke-linejoin: miter; stroke-miterlimit: 4; fill: rgb(0,0,0); fill-rule: nonzero; opacity: 1;"  transform=" translate(-21.77, -5.1)" d="M 17.4 9.9 c -0.5 -2.1 -0.5 -3.1 0.2 -4.9 c 2.6 -2.4 5.6 -4.2 8.9 -4.7 C 22.9 1.2 19.7 4.9 17.4 9.9" stroke-linecap="round" />
</g>
</g>
</g>
</svg>